# AST/ASF file generated using VICON BodyLanguage
# -----------------------------------------------
:version 1.10
:name VICON
:units
  mass 1.0
  length 0.45
  angle deg
:documentation
   .ast/.asf automatically generated from VICON data using
   VICON BodyBuilder and BodyLanguage model FoxedUp or BRILLIANT.MOD
:root
   order TX TY TZ RX RY RZ
   axis XYZ
   position 0 0 0  
   orientation 0 0 0 
:bonedata
  begin
     id 1 
     name lhipjoint
     direction 0.54267 -0.795011 0.271047 
     length 2.39899 
     axis 0 0 0  XYZ
  end
  begin
     id 2 
     name lfemur
     direction 0.34202 -0.939693 0  
     length 7.49701  
     axis 0 0 20  XYZ
    dof rx ry rz
    limits (-160.0 20.0)
           (-70.0 70.0)
           (-60.0 70.0)
  end
  begin
     id 3 
     name ltibia
     direction 0.34202 -0.939693 0   
     length 8.1668   
     axis 0 0 20   XYZ
    dof rx
    limits (-10.0 170.0)
  end
  begin
     id 4 
     name lfoot
     direction 0.0736283 -0.202292 0.976554   
     length 2.13544   
     axis -90 7.62852e-016 20   XYZ
    dof rx rz
    limits (-45.0 90.0)
           (-70.0 20.0)
  end
  begin
     id 5 
     name ltoes
     direction 1.53557e-011 -4.22024e-011 1   
     length 1.07411   
     axis -90 7.62852e-016 20   XYZ
    dof rx
    limits (-90.0 20.0)
  end
  begin
     id 6 
     name rhipjoint
     direction -0.538061 -0.797813 0.272002   
     length 2.39057  
     axis 0 0 0  XYZ 
  end
  begin
     id 7 
     name rfemur
     direction -0.34202 -0.939693 0   
     length 7.50152   
     axis 0 0 -20   XYZ
    dof rx ry rz
    limits (-160.0 20.0)
           (-70.0 70.0)
           (-70.0 60.0)
  end
  begin
     id 8 
     name rtibia
     direction -0.34202 -0.939693 0   
     length 8.05793   
     axis 0 0 -20   XYZ
    dof rx
    limits (-10.0 170.0)
 end
 begin
     id 9 
     name rfoot
     direction -0.0765195 -0.210236 0.974652   
     length 2.28698  
     axis -90 -7.62852e-016 -20   XYZ
    dof rx rz
    limits (-45.0 90.0)
           (-20.0 70.0)
  end
  begin
     id 10 
     name rtoes
     direction -1.53542e-011 -4.21847e-011 1   
     length 1.14762   
     axis -90 -7.62852e-016 -20   XYZ
    dof rx
    limits (-90.0 20.0)
  end
  begin
     id 11 
     name lowerback
     direction -0.0217239 0.996592 -0.0795765   
     length 2.08176   
     axis 0 0 0   XYZ
    dof rx ry rz
    limits (-20.0 45.0)
           (-30.0 30.0)
           (-30.0 30.0)
  end
  begin
     id 12 
     name upperback
     direction -0.00563773 0.999651 -0.0258155   
     length 2.08898   
     axis 0 0 0   XYZ
    dof rx ry rz
    limits (-20.0 45.0)
           (-30.0 30.0)
           (-30.0 30.0)
  end
  begin
     id 13 
     name thorax
     direction 0.0032706 0.999923 0.0119599   
     length 2.0968   
     axis 0 0 0   XYZ
    dof rx ry rz
    limits (-20.0 45.0)
           (-30.0 30.0)
           (-30.0 30.0)
  end
  begin
     id 14 
     name lowerneck
     direction -0.0285886 0.99568 0.0883427   
     length 1.81272   
     axis 0 0 0   XYZ
    dof rx ry rz
    limits (-20.0 45.0)
           (-30.0 30.0)
           (-30.0 30.0)
  end
  begin
     id 15 
     name upperneck
     direction 0.0807535 0.97985 -0.18268   
     length 1.82518   
     axis 0 0 0   XYZ
    dof rx ry rz
    limits (-20.0 45.0)
           (-30.0 30.0)
           (-30.0 30.0)
  end
  begin
     id 16
     name head
     direction 0.0236605 0.997053 -0.0729767  
     length 1.84443  
     axis 0 0 0   XYZ
    dof rx ry rz
    limits (-20.0 45.0)
           (-30.0 30.0)
           (-30.0 30.0)
  end
  begin
     id 17 
     name lclavicle
     direction 0.918986 0.39378 -0.0200683  
     length 3.27822  
     axis 0 0 0   XYZ
    dof ry rz
    limits (-20.0 10.0)
           (0.0 20.0)
  end
  begin
     id 18 
     name lhumerus
     direction 1 -4.4897e-011 2.09544e-027   
     length 5.5568   
     axis 180 -30 -90   XYZ
    dof rx ry rz
    limits (-60.0 90.0)
           (-90.0 90.0)
           (-90.0 90.0)
  end
  begin
     id 19
     name lradius
     direction 1 -4.48957e-011 -1.27696e-026   
     length 3.63979   
     axis 180 -30 -90   XYZ
    dof rx
    limits (-10.0 170.0)
  end
  begin
     id 20
     name lwrist
     direction 1 -4.49001e-011 -1.49001e-026   
     length 1.8199   
     axis 9.0955e-015 90 90   XYZ
    dof ry
    limits (-180.0 0.0)
 end
  begin
     id 21 
     name lhand
     direction 1 -4.48709e-011 -2.9758e-026   
     length 0.569419   
     axis 1.90115e-014 90 90   XYZ
    dof rx rz
    limits (-90.0 90.0)
           (-45.0 45.0)
  end
  begin
     id 22 
     name lfingers
     direction 1 -4.49175e-011 -5.96505e-026   
     length 0.45908   
     axis 3.80223e-014 90 90   XYZ
    dof rx
    limits (0.0 90.0)
  end
  begin
     id 23
     name lthumb
     direction 0.707107 -6.34864e-011 0.707107   
     length 0.65915   
     axis -90 45 -3.84942e-014   XYZ
    dof rx rz
    limits (-45.0 45.0)
           (-45.0 45.0)
  end
  begin
     id 24 
     name rclavicle
     direction -0.911913 0.396426 -0.106115   
     length 3.46301  
     axis 0 0 0   XYZ 
    dof ry rz
    limits (-10.0 20.0)
           (-20.0 0.0)
  end
  begin
     id 25 
     name rhumerus
     direction -1 -4.48965e-011 7.78516e-028  
     length 5.34339   
     axis 180 30 90   XYZ
    dof rx ry rz
    limits (-90.0 60.0)
           (-90.0 90.0)
           (-90.0 90.0)
  end
  begin
     id 26 
     name rradius
     direction -1 -4.48948e-011 -5.79823e-027   
     length 3.65101   
     axis 180 30 90   XYZ
    dof rx
    limits (-10.0 170.0)
  end
  begin
     id 27 
     name rwrist
     direction -1 -4.48995e-011 -1.48996e-026   
     length 1.8255   
     axis 9.0955e-015 -90 -90   XYZ
    dof ry
    limits (-180.0 0.0)
  end
  begin
     id 28
     name rhand
     direction -1 -4.48957e-011 -2.97937e-026   
     length 0.694249   
     axis 1.90115e-014 -90 -90   XYZ
    dof rx rz
    limits (-90.0 90.0)
           (-45.0 45.0)
  end
  begin
     id 29
     name rfingers
     direction -1 -4.4898e-011 -5.95943e-026   
     length 0.559721   
     axis 3.80223e-014 -90 -90   XYZ
    dof rx
    limits (0.0 90.0)
  end
  begin
     id 30
     name rthumb
     direction -0.707107 -6.34969e-011 0.707107   
     length 0.803651   
     axis -90 -45 3.84942e-014   XYZ
    dof rx rz
    limits (-45.0 45.0)
           (-45.0 45.0)
  end
:hierarchy
  begin
    root lhipjoint rhipjoint lowerback
    lhipjoint lfemur
    lfemur ltibia
    ltibia lfoot
    lfoot ltoes
    rhipjoint rfemur
    rfemur rtibia
    rtibia rfoot
    rfoot rtoes
    lowerback upperback
    upperback thorax
    thorax lowerneck lclavicle rclavicle
    lowerneck upperneck
    upperneck head
    lclavicle lhumerus
    lhumerus lradius
    lradius lwrist
    lwrist lhand lthumb
    lhand lfingers
    rclavicle rhumerus
    rhumerus rradius
    rradius rwrist
    rwrist rhand rthumb
    rhand rfingers
  end

#!OML:ASF H:\Terrain\Walking\May29\JustinRory\rory.ASF
:FULLY-SPECIFIED
:DEGREES
1135
root 15.3014 18.0691 -10.6417 -363.266 -60.9494 7.43199
lowerback 3.26142 2.51754 -3.12661
upperback 2.59327 3.25509 -0.426153
thorax 0.687476 1.57836 1.22271
lowerneck -1.92721 6.56712 5.69737
upperneck 15.1192 9.24014 -6.26964
head 5.42209 4.3988 -2.37451
rclavicle -1.39746e-013 2.34566e-014
rhumerus -26.7815 38.5798 -91.1779
rradius 125.714
rwrist -68.8655
rhand 56.2704 28.0781
rfingers 7.12502
rthumb 73.3941 48.1489
lclavicle -1.39746e-013 2.34566e-014
lhumerus -36.7155 -37.9386 95.0565
lradius 130.643
lwrist 73.3391
lhand 29.0037 54.479
lfingers 7.12502
lthumb 52.8091 74.0915
rfemur -3.66126 13.8977 1.67913
rtibia 26.4221
rfoot -3.182 -17.0188
rtoes -15.8494
lfemur -17.6129 -0.808854 -14.8927
ltibia 29.6278
lfoot -13.2195 1.75736
ltoes 0.744052
1136
root 15.2679 18.0574 -10.7781 -363.255 -60.6871 7.44192
lowerback 3.23341 2.42366 -3.2928
upperback 2.55313 3.12696 -0.453226
thorax 0.660518 1.51333 1.29169
lowerneck -2.05547 6.66218 5.585
upperneck 15.0876 9.34077 -6.04581
head 5.42524 4.45394 -2.27587
rclavicle 4.46769e-014 -1.19271e-014
rhumerus -26.6405 38.336 -91.1104
rradius 125.939
rwrist -68.9604
rhand 56.3998 27.4642
rfingers 7.12502
rthumb 73.4482 47.9299
lclavicle 4.46769e-014 -1.19271e-014
lhumerus -36.6972 -37.7292 95.2288
lradius 130.203
lwrist 73.1631
lhand 29.2309 56.3804
lfingers 7.12502
lthumb 53.0141 75.8638
rfemur -3.36247 14.0292 2.08457
rtibia 26.0229
rfoot -3.87665 -17.4741
rtoes -17.7418
lfemur -17.711 -1.06515 -14.4111
ltibia 29.4904
lfoot -13.1585 1.7586
ltoes 0.702673
1137
root 15.2465 18.0365 -10.9094 -363.144 -60.5318 7.19171
lowerback 3.29014 2.43703 -2.98305
upperback 2.59661 3.15006 -0.582546
thorax 0.695566 1.52851 0.985093
lowerneck -2.09608 6.62633 5.67477
upperneck 14.9565 9.27488 -6.00373
head 5.38974 4.43133 -2.28126
rclavicle -7.56376e-014 1.94809e-014
rhumerus -26.5146 37.816 -91.0776
rradius 126.153
rwrist -68.651
rhand 55.9716 27.4971
rfingers 7.12502
rthumb 73.266 46.6664
lclavicle -7.56376e-014 1.94809e-014
lhumerus -36.5505 -37.8882 94.9437
lradius 130.046
lwrist 73.1727
lhand 28.6525 54.8342
lfingers 7.12502
lthumb 52.4915 74.6434
rfemur -3.01414 14.179 2.63632
rtibia 25.7019
rfoot -4.27871 -17.6717
rtoes -20.2348
lfemur -17.7494 -1.16277 -13.8381
ltibia 29.3794
lfoot -13.0164 1.93366
ltoes -1.17297
1138
root 15.22 18.0056 -11.0456 -363.426 -60.5688 7.44499
lowerback 3.32835 2.59537 -2.98585
upperback 2.55307 3.35819 -0.780485
thorax 0.633171 1.63491 0.774654
lowerneck -2.08147 6.51168 5.84366
upperneck 14.8914 9.10243 -5.97263
head 5.36282 4.36011 -2.31125
rclavicle 3.3197e-014 -1.03368e-014
rhumerus -26.6936 37.0169 -91.257
rradius 126.36
rwrist -68.2726
rhand 56.2348 27.2818
rfingers 7.12502
rthumb 73.379 47.2445
lclavicle 3.3197e-014 -1.03368e-014
lhumerus -36.4492 -38.2367 94.5074
lradius 129.993
lwrist 73.6173
lhand 28.9566 54.1664
lfingers 7.12502
lthumb 52.7664 73.8055
rfemur -2.76852 14.2665 2.87734
rtibia 25.4151
rfoot -5.63563 -17.6969
rtoes -18.9745
lfemur -17.7789 -1.21772 -13.5119
ltibia 29.2311
lfoot -12.7594 2.23387
ltoes -1.46982
1139
root 15.1911 17.9816 -11.1776 -363.909 -60.5964 8.02335
lowerback 3.19345 2.70279 -3.31395
upperback 2.56062 3.4988 -0.900613
thorax 0.700028 1.70041 0.836381
lowerneck -2.21295 6.46051 5.79982
upperneck 14.866 9.02529 -5.92617
head 5.36826 4.32158 -2.29069
rclavicle -7.14382e-014 1.64991e-014
rhumerus -26.6465 36.5076 -91.2267
rradius 126.562
rwrist -68.1882
rhand 57.1022 26.8342
rfingers 7.12502
rthumb 73.7277 49.4881
lclavicle -7.14382e-014 1.64991e-014
lhumerus -36.5616 -38.3737 94.3592
lradius 130.051
lwrist 73.8177
lhand 29.9104 52.9732
lfingers 7.12502
lthumb 53.6264 72.0608
rfemur -2.72614 14.0295 2.89475
rtibia 25.2317
rfoot -6.98906 -17.5558
rtoes -17.9692
lfemur -17.8276 -1.62539 -13.3595
ltibia 29.0265
lfoot -12.6387 2.85368
ltoes -2.60484
1140
root 15.1631 17.9687 -11.3084 -364.347 -60.6204 8.51238
lowerback 3.23105 2.65393 -3.73213
upperback 2.52469 3.42078 -0.9011
thorax 0.621833 1.65736 1.06732
lowerneck -2.26689 6.55041 5.49571
upperneck 14.797 9.15423 -5.85159
head 5.34644 4.37268 -2.20929
rclavicle -5.00689e-014 2.78299e-015
rhumerus -26.8778 36.6288 -91.2121
rradius 126.752
rwrist -67.9545
rhand 57.283 27.0733
rfingers 7.12502
rthumb 73.7956 50.3025
lclavicle -5.00689e-014 2.78299e-015
lhumerus -37.0278 -37.9611 94.5131
lradius 130.2
lwrist 73.708
lhand 30.2598 52.2784
lfingers 7.12502
lthumb 53.9404 71.1567
rfemur -2.67779 13.7265 3.00972
rtibia 25.0405
rfoot -7.69489 -17.4773
rtoes -19.3906
lfemur -17.7892 -1.89535 -13.1569
ltibia 28.7581
lfoot -12.4979 3.3409
ltoes -4.04745
1141
root 15.1322 17.9534 -11.445 -364.672 -60.6203 8.82851
lowerback 3.29637 2.71037 -3.89765
upperback 2.52123 3.4873 -1.02452
thorax 0.577096 1.68951 1.02724
lowerneck -2.32589 6.51343 5.40936
upperneck 14.6628 9.08531 -5.71586
head 5.30064 4.34427 -2.15745
rclavicle 6.61953e-014 -6.75868e-015
rhumerus -27.1655 36.2417 -91.3026
rradius 126.843
rwrist -67.5955
rhand 56.8757 27.7463
rfingers 7.12502
rthumb 73.6403 49.6862
lclavicle 6.61953e-014 -6.75868e-015
lhumerus -37.3242 -37.9882 94.5908
lradius 130.276
lwrist 73.4281
lhand 29.6376 52.2244
lfingers 7.12502
lthumb 53.3809 71.4725
rfemur -2.48602 13.5919 3.27367
rtibia 24.7814
rfoot -8.53551 -17.4194
rtoes -19.6402
lfemur -17.723 -2.05543 -12.8219
ltibia 28.4865
lfoot -12.3484 3.4921
ltoes -2.45582
1142
root 15.1097 17.9407 -11.5762 -364.568 -60.4706 8.74192
lowerback 3.48456 2.80742 -3.82346
upperback 2.37329 3.60524 -1.07346
thorax 0.321963 1.75599 0.917584
lowerneck -2.23942 6.37503 5.55966
upperneck 14.5829 8.89388 -5.75701
head 5.25836 4.25967 -2.21062
rclavicle -1.21656e-013 1.61016e-014
rhumerus -27.4581 35.7146 -91.4337
rradius 126.957
rwrist -67.5645
rhand 56.2388 28.0096
rfingers 7.12502
rthumb 73.3807 47.9845
lclavicle -1.21656e-013 1.61016e-014
lhumerus -37.7098 -38.3509 94.8076
lradius 130.31
lwrist 73.2532
lhand 28.7123 51.9202
lfingers 7.12502
lthumb 52.5456 71.6961
rfemur -2.34636 13.3209 3.73262
rtibia 24.5195
rfoot -9.69448 -17.4521
rtoes -17.8067
lfemur -17.8045 -2.35578 -12.3147
ltibia 28.201
lfoot -12.0148 3.69051
ltoes -3.73314
1143
root 15.0954 17.9284 -11.7039 -364.091 -60.3593 8.29326
lowerback 3.34462 2.72641 -3.47563
upperback 2.40573 3.51565 -1.04426
thorax 0.455448 1.713 0.766281
lowerneck -2.05808 6.44848 5.58298
upperneck 14.2222 9.01103 -5.94072
head 5.13226 4.31642 -2.27309
rclavicle -5.5113e-014 6.95746e-015
rhumerus -27.2868 35.8142 -91.403
rradius 127.19
rwrist -67.5649
rhand 55.6277 27.8983
rfingers 7.12502
rthumb 73.1134 46.0474
lclavicle -5.5113e-014 6.95746e-015
lhumerus -37.6044 -38.2849 94.5789
lradius 130.328
lwrist 73.6137
lhand 27.9992 52.3359
lfingers 7.12502
lthumb 51.8994 72.5011
rfemur -2.36207 12.8442 4.37474
rtibia 24.2492
rfoot -10.5059 -17.5946
rtoes -16.8685
lfemur -17.9616 -2.55073 -11.646
ltibia 27.9214
lfoot -11.6332 4.08275
ltoes -7.63763
1144
root 15.0752 17.9188 -11.8354 -364.065 -60.4285 8.27385
lowerback 3.30908 2.65082 -3.50233
upperback 2.39128 3.41602 -1.01606
thorax 0.461042 1.66297 0.81474
lowerneck -1.95629 6.61088 5.55141
upperneck 14.1189 9.25396 -6.09871
head 5.10372 4.42756 -2.30557
rclavicle -1.67725e-014 -9.14409e-015
rhumerus -27.2535 35.9886 -91.4369
rradius 127.322
rwrist -67.3578
rhand 55.5455 27.7523
rfingers 7.12502
rthumb 73.0761 45.6604
lclavicle -1.67725e-014 -9.14409e-015
lhumerus -37.7332 -37.8728 94.4863
lradius 130.402
lwrist 73.8979
lhand 27.5244 53.4129
lfingers 7.12502
lthumb 51.4682 73.8292
rfemur -2.32729 12.2913 4.80404
rtibia 23.8942
rfoot -11.1457 -17.642
rtoes -16.7477
lfemur -17.9435 -2.99634 -11.1595
ltibia 27.637
lfoot -11.5581 4.89512
ltoes -6.86158
1145
root 15.0436 17.9106 -11.9644 -364.374 -60.5363 8.48159
lowerback 3.30519 2.72916 -3.70313
upperback 2.42306 3.51546 -1.02534
thorax 0.481049 1.70936 0.914246
lowerneck -2.14812 6.59789 5.68364
upperneck 14.3519 9.25276 -6.25866
head 5.22149 4.41706 -2.36681
rclavicle 1.08412e-013 -1.98785e-016
rhumerus -27.2232 35.7127 -91.3781
rradius 127.206
rwrist -67.0861
rhand 55.9593 28.0253
rfingers 7.12502
rthumb 73.2606 47.1578
lclavicle 1.08412e-013 -1.98785e-016
lhumerus -37.8307 -37.6167 94.4041
lradius 130.406
lwrist 73.6872
lhand 28.1798 53.2709
lfingers 7.12502
lthumb 52.0633 73.3388
rfemur -2.14681 11.6334 5.1581
rtibia 23.5498
rfoot -11.4645 -17.8179
rtoes -17.3327
lfemur -17.676 -3.82854 -10.776
ltibia 27.2863
lfoot -11.694 5.90461
ltoes -3.75609
1146
root 15.0152 17.9069 -12.0916 -363.577 -60.6679 7.45899
lowerback 3.32101 2.76251 -3.06885
upperback 2.44367 3.577 -0.925529
thorax 0.521578 1.74684 0.662385
lowerneck -2.31733 6.61387 5.681
upperneck 14.508 9.29538 -6.39941
head 5.30738 4.42341 -2.39956
rclavicle -6.03311e-014 4.96962e-015
rhumerus -27.2271 35.5144 -91.3761
rradius 127.076
rwrist -66.6908
rhand 55.8928 29.3659
rfingers 7.12502
rthumb 73.2315 48.2999
lclavicle -6.03311e-014 4.96962e-015
lhumerus -37.9288 -37.6154 94.1478
lradius 130.377
lwrist 73.4983
lhand 29.8789 51.8718
lfingers 7.12502
lthumb 53.598 70.978
rfemur -2.02997 11.1172 6.22805
rtibia 23.2323
rfoot -11.259 -18.2511
rtoes -18.3276
lfemur -17.4184 -4.60337 -9.73379
ltibia 26.8253
lfoot -11.6386 6.8806
ltoes -4.38603
1147
root 14.9977 17.9111 -12.2223 -362.256 -60.7922 6.04225
lowerback 3.36895 2.71024 -2.1353
upperback 2.35885 3.53039 -0.845082
thorax 0.458782 1.73635 0.223274
lowerneck -2.22342 6.73437 5.52609
upperneck 14.4182 9.46133 -6.34739
head 5.26454 4.50233 -2.35184
rclavicle -7.95139e-015 -1.27222e-014
rhumerus -27.3992 35.4952 -91.5832
rradius 127.152
rwrist -66.3583
rhand 55.0718 30.1294
rfingers 7.12502
rthumb 72.8553 46.6695
lclavicle -7.95139e-015 -1.27222e-014
lhumerus -38.0506 -37.6634 93.7407
lradius 130.306
lwrist 73.7658
lhand 31.1434 51.8557
lfingers 7.12502
lthumb 54.7318 70.1866
rfemur -2.16799 10.6914 7.49592
rtibia 22.9299
rfoot -11.2597 -18.688
rtoes -17.7281
lfemur -17.395 -5.28741 -8.47017
ltibia 26.2828
lfoot -11.3677 7.87542
ltoes -3.97946
1148
root 14.977 17.9156 -12.346 -361.788 -60.9216 5.52682
lowerback 3.39352 2.73185 -1.83581
upperback 2.29185 3.56645 -0.805454
thorax 0.390942 1.75885 0.0930423
lowerneck -1.88142 6.78163 5.56162
upperneck 14.149 9.53028 -6.40723
head 5.13229 4.54558 -2.3866
rclavicle 9.49445e-014 -1.8487e-014
rhumerus -27.6877 35.3483 -91.6324
rradius 127.321
rwrist -66.306
rhand 54.7292 29.1896
rfingers 7.12502
rthumb 72.6896 44.763
lclavicle 9.49445e-014 -1.8487e-014
lhumerus -38.238 -37.3326 93.8477
lradius 130.099
lwrist 73.8898
lhand 31.4841 54.0154
lfingers 7.12502
lthumb 55.036 72.128
rfemur -2.24243 10.2006 8.25189
rtibia 22.6525
rfoot -11.8711 -19.0329
rtoes -15.4248
lfemur -17.2538 -5.98002 -7.74471
ltibia 25.7113
lfoot -11.2921 8.84276
ltoes 0.0447132
